<svg width="406" height="306" viewBox="0 0 406 306" fill="none" xmlns="http://www.w3.org/2000/svg">
<path d="M338.812 277.016C336.229 281.039 330.972 282.201 326.243 282.927C292.447 287.832 258.06 283.964 224.129 280.002C221.505 279.691 218.654 279.276 216.87 277.337L220.759 274.226C192.692 277.898 164.338 278.86 136.087 277.099C132.084 276.85 127.729 276.383 124.908 273.542C122.959 271.592 122.025 268.73 119.858 267.008C116.913 264.675 112.703 265.163 108.98 265.691C96.6966 267.438 84.3128 268.384 71.9068 268.523C62.916 268.626 52.8985 267.859 46.7698 261.263C52.5978 256.784 59.5457 254.056 66.3899 251.37C75.1838 247.928 84.0191 244.474 93.2588 242.483C104.438 240.067 115.948 239.86 127.376 239.652L251.465 237.443C264.251 237.215 277.151 236.997 289.709 239.414C304.02 242.162 334.695 254.575 322.603 273.106C323.91 273.21 339.434 276.03 338.812 277.016Z" fill="url(#paint0_linear_156_117)"/>
<path d="M79.7465 260.486C103.36 260.486 122.502 241.343 122.502 217.73C122.502 194.117 103.36 174.974 79.7465 174.974C56.1331 174.974 36.9907 194.117 36.9907 217.73C36.9907 241.343 56.1331 260.486 79.7465 260.486Z" fill="#F8C244"/>
<path d="M114.88 227.372C120.216 207.973 108.815 187.921 89.4161 182.585C70.0169 177.249 49.9649 188.649 44.6288 208.048C39.2926 227.448 50.693 247.5 70.0922 252.836C89.4915 258.172 109.543 246.772 114.88 227.372Z" fill="#E8A825"/>
<path d="M73.9705 240.202L74.5927 234.384C71.4867 234.041 68.5382 232.838 66.0789 230.91L67.8625 227.208C70.1429 229.062 72.9066 230.225 75.8267 230.558C79.9748 231.004 82.9406 228.961 83.2932 225.684C83.6458 222.407 81.6132 220.323 77.5482 218.124C71.9276 215.179 68.5884 212.141 69.1277 207.153C69.6462 202.382 73.4209 199.126 78.8133 198.857L79.4355 193.049L83.0028 193.433L82.4013 199.002C85.0215 199.317 87.519 200.291 89.6604 201.833L87.856 205.514C85.8106 203.967 83.3773 203.016 80.8251 202.766C76.3971 202.289 74.4475 204.757 74.1986 207.049C73.8772 210.035 75.8371 211.757 80.6073 214.37C86.2694 217.429 88.9034 220.737 88.3849 225.85C87.8975 230.392 84.2368 234.312 78.2533 234.654L77.6104 240.627L73.9705 240.202Z" fill="#F8C244"/>
<path d="M130.021 261.616C153.634 261.616 172.776 242.474 172.776 218.86C172.776 195.247 153.634 176.104 130.021 176.104C106.407 176.104 87.2649 195.247 87.2649 218.86C87.2649 242.474 106.407 261.616 130.021 261.616Z" fill="#F8C244"/>
<path d="M147.515 250.828C165.16 241.16 171.626 219.019 161.958 201.374C152.289 183.729 130.148 177.263 112.504 186.931C94.859 196.599 88.3927 218.741 98.0609 236.385C107.729 254.03 129.87 260.496 147.515 250.828Z" fill="#E8A825"/>
<path d="M141.5 239.02L137.902 234.415C135.432 236.331 132.476 237.52 129.367 237.848L128.071 233.938C131 233.695 133.796 232.615 136.129 230.827C139.395 228.287 140.121 224.73 138.089 222.127C136.056 219.524 133.153 219.451 128.756 220.696C122.679 222.5 118.168 222.645 115.077 218.684C112.122 214.899 112.578 209.932 116.239 205.97L112.651 201.366L115.482 199.157L118.925 203.575C121.022 201.977 123.492 200.939 126.101 200.557L127.366 204.487C124.82 204.799 122.411 205.811 120.408 207.412C116.892 210.15 117.214 213.271 118.624 215.096C120.48 217.46 123.094 217.336 128.33 215.895C134.552 214.142 138.7 214.66 141.905 218.726C144.715 222.324 144.84 227.665 140.754 232.093L144.446 236.842L141.5 239.02Z" fill="#F8C244"/>
<path d="M261.098 40.6921V252.397C261.098 257.301 259.15 262.004 255.683 265.471C252.215 268.939 247.512 270.887 242.608 270.887H150.979C148.547 270.892 146.138 270.418 143.89 269.491C141.642 268.565 139.599 267.204 137.877 265.486C136.156 263.769 134.79 261.728 133.859 259.482C132.927 257.236 132.447 254.829 132.447 252.397V40.6921C132.446 38.2632 132.923 35.8577 133.852 33.6132C134.78 31.3687 136.142 29.3292 137.859 27.6112C139.576 25.8931 141.615 24.5302 143.859 23.6004C146.103 22.6705 148.508 22.1919 150.937 22.1919H242.567C245 22.1865 247.409 22.6611 249.658 23.5885C251.907 24.5159 253.95 25.8779 255.672 27.5965C257.393 29.315 258.759 31.3564 259.69 33.6036C260.621 35.8508 261.1 38.2597 261.098 40.6921V40.6921Z" fill="#8D1EFC"/>
<path d="M240.68 25.3237H152.897C143.023 25.3237 135.019 33.328 135.019 43.2017V249.473C135.019 259.347 143.023 267.351 152.897 267.351H240.68C250.553 267.351 258.558 259.347 258.558 249.473V43.2017C258.558 33.328 250.553 25.3237 240.68 25.3237Z" fill="#473F47"/>
<path d="M255.052 45.4417V245.18C255.006 249.708 253.163 254.032 249.929 257.202C246.695 260.371 242.335 262.127 237.807 262.083H155.562C152.558 262.092 149.602 261.32 146.986 259.843C144.363 258.394 142.174 256.271 140.646 253.694C139.118 251.116 138.307 248.176 138.296 245.18V45.4417C138.345 40.9109 140.192 36.5852 143.429 33.4154C146.667 30.2457 151.031 28.4915 155.562 28.5385H169.458V31.0481C169.493 32.6605 170.004 34.2265 170.927 35.5494C171.849 36.8723 173.142 37.8931 174.643 38.4834C175.65 38.8806 176.723 39.0846 177.806 39.0849H216.009C218.188 39.0851 220.28 38.2282 221.832 36.6992C223.384 35.1702 224.273 33.0919 224.305 30.9133V28.5385H237.786C242.21 28.5288 246.47 30.2049 249.702 33.2258C251.385 34.785 252.729 36.6745 253.65 38.7763C254.57 40.8781 255.048 43.1471 255.052 45.4417V45.4417Z" fill="white"/>
<path opacity="0.18" d="M196.814 108.709C212.192 108.709 224.658 96.2432 224.658 80.8656C224.658 65.488 212.192 53.022 196.814 53.022C181.437 53.022 168.971 65.488 168.971 80.8656C168.971 96.2432 181.437 108.709 196.814 108.709Z" fill="#8D1EFC"/>
<path opacity="0.18" d="M240.545 129.242H152.067V201.283H240.545V129.242Z" fill="#8D1EFC"/>
<g opacity="0.41">
<path d="M175.141 185.054H160.561V197.757H175.141V185.054Z" fill="#8D1EFC"/>
</g>
<path d="M189.607 175.171H175.027V197.757H189.607V175.171Z" fill="#8D1EFC"/>
<g opacity="0.5">
<path d="M204.073 164.75H189.493V197.757H204.073V164.75Z" fill="#8D1EFC"/>
</g>
<path d="M218.54 154.597H203.959V197.757H218.54V154.597Z" fill="#8D1EFC"/>
<path d="M233.006 144.362H218.426V197.757H233.006V144.362Z" fill="#8D1EFC"/>
<path d="M233.006 144.362H218.426V197.757H233.006V144.362Z" fill="url(#paint1_linear_156_117)"/>
<path d="M235.889 197.757H154.992V201.294H235.889V197.757Z" fill="url(#paint2_linear_156_117)"/>
<path opacity="0.18" d="M194.709 207.92H152.067V261.865H194.709V207.92Z" fill="#8D1EFC"/>
<path opacity="0.18" d="M240.545 207.92H197.903V261.865H240.545V207.92Z" fill="#8D1EFC"/>
<path d="M195.176 101.45V96.3792C192.467 96.3903 189.809 95.6431 187.502 94.2222L188.674 90.852C190.821 92.2173 193.316 92.9372 195.86 92.926C199.448 92.926 201.823 90.852 201.813 87.9898C201.802 85.1277 199.842 83.5411 196.119 82.0478C190.997 80.0671 187.823 77.7753 187.823 73.4199C187.823 69.2718 190.737 66.0882 195.352 65.3105V60.2603H198.463V65.1134C200.748 65.1252 202.993 65.7175 204.986 66.8349L203.773 70.2052C201.862 69.0746 199.677 68.4933 197.457 68.5252C193.6 68.5252 192.158 70.8688 192.168 72.8599C192.168 75.4628 194.045 76.759 198.391 78.5427C203.576 80.6167 206.178 83.2092 206.21 87.6683C206.21 91.6193 203.482 95.3526 198.339 96.234V101.419L195.176 101.45Z" fill="#8D1EFC"/>
<path d="M248.81 177.442C248.468 177.94 248.053 178.676 247.514 178.904C246.725 179.236 245.626 178.635 244.973 178.241C243.873 177.577 242.832 176.821 241.862 175.98C240.96 175.213 240.12 174.373 239.145 173.699C238.196 172.979 237.048 172.57 235.858 172.527C233.348 172.527 232.021 175.016 231.782 177.224C231.544 179.433 232.757 181.881 234.893 182.306C236.044 182.534 237.237 182.14 238.409 182.244C242.36 182.575 244.817 188.186 248.716 187.429C250.077 187.022 251.286 186.221 252.19 185.126L256.204 181.113C258.558 178.759 261.046 176.146 261.451 172.817C261.752 170.297 259.968 164.697 256.878 166.336C255.405 167.114 253.901 170.391 252.906 171.749C251.589 173.584 250.282 175.43 248.934 177.235C248.882 177.328 248.841 177.38 248.81 177.442Z" fill="#F9C6D6"/>
<path d="M223.994 173.149L242.588 178.085L249.09 201.864L231.046 198.919L223.994 173.149Z" fill="#8D1EFC"/>
<path d="M242.93 200.785L242.349 198.265C242.36 198.019 242.322 197.773 242.237 197.541C242.152 197.31 242.022 197.098 241.854 196.917C241.686 196.736 241.483 196.591 241.259 196.49C241.034 196.388 240.791 196.333 240.545 196.326C239.232 196.263 237.979 195.759 236.988 194.895C236.34 194.072 236.002 193.048 236.034 192.002C236.034 190.436 236.5 188.683 237.88 187.937L247.047 194.356L249.121 201.874L242.93 200.785Z" fill="url(#paint3_linear_156_117)"/>
<path d="M250.199 171.718C250.095 172.032 250.042 172.361 250.044 172.693C250.112 173.158 250.305 173.595 250.604 173.958C251.85 175.786 252.851 177.77 253.58 179.858C253.77 180.522 254.049 181.157 254.41 181.746C254.591 182.043 254.841 182.292 255.139 182.472C255.437 182.653 255.773 182.759 256.121 182.783C256.543 182.747 256.945 182.583 257.271 182.312C257.597 182.042 257.833 181.677 257.946 181.269C258.171 180.456 258.231 179.606 258.122 178.77C257.946 176.333 257.469 173.585 257.935 171.148C258.443 168.431 259.356 165.745 259.947 163.038C259.097 162.665 258.184 163.339 257.51 163.971C255.332 165.994 253.155 168.016 251.143 170.194C250.721 170.627 250.399 171.147 250.199 171.718V171.718Z" fill="#8D1EFC"/>
<path d="M272.184 276.3C247.348 275.937 227.333 267.454 227.479 257.313C227.479 256.182 226.639 249.815 227.126 248.799C231.046 240.295 250.625 239.3 272.754 239.6C294.469 239.922 312.71 239.6 316.775 248C317.377 249.193 317.47 257.333 317.449 258.588C317.283 268.73 297.02 276.653 272.184 276.3Z" fill="#E8A825"/>
<path d="M317.093 250.139C317.238 240.009 297.227 231.508 272.396 231.153C247.565 230.797 227.318 238.722 227.173 248.852C227.028 258.982 247.04 267.483 271.871 267.838C296.702 268.194 316.948 260.269 317.093 250.139Z" fill="#F8C244"/>
<path d="M310.437 250.044C310.56 241.414 293.511 234.172 272.357 233.869C251.203 233.567 233.954 240.317 233.83 248.947C233.707 257.577 250.756 264.819 271.91 265.121C293.064 265.424 310.313 258.674 310.437 250.044Z" fill="#E8A825"/>
<path d="M247.97 247.658L254.099 247.751C254.219 246.953 254.53 246.195 255.007 245.543C255.484 244.891 256.111 244.364 256.836 244.008L260.901 244.64C260.199 244.966 259.588 245.46 259.123 246.078C258.658 246.697 258.353 247.422 258.236 248.187C258.236 249.95 260.694 251.184 264.147 251.215C265.48 251.32 266.821 251.134 268.074 250.668C269.328 250.202 270.465 249.469 271.406 248.519C272.758 247.11 274.41 246.024 276.24 245.344C278.07 244.663 280.03 244.405 281.973 244.589C287.013 244.589 290.84 246.175 291.721 248.467L297.85 248.56V250.095L291.949 250.002C291.854 250.666 291.608 251.3 291.231 251.855C290.853 252.411 290.354 252.873 289.772 253.206L285.779 252.532C286.344 252.212 286.826 251.764 287.187 251.223C287.547 250.683 287.775 250.066 287.853 249.421C287.853 247.544 285.105 246.756 282.668 246.725C281.355 246.653 280.042 246.884 278.832 247.4C277.622 247.916 276.547 248.703 275.689 249.701C273.107 252.211 269.923 253.455 264.448 253.455C259.626 253.455 255.115 251.951 254.161 249.38L247.845 249.286L247.97 247.658Z" fill="#F8C244"/>
<path d="M293.1 267.662C268.264 267.309 248.25 258.816 248.395 248.674C248.395 247.554 247.555 241.177 248.042 240.171C251.962 231.657 271.551 230.662 293.671 230.962C315.396 231.284 333.627 230.962 337.702 239.362C338.293 240.565 338.386 248.695 338.376 249.95C338.2 260.092 317.937 268.015 293.1 267.662Z" fill="#E8A825"/>
<path d="M338.009 241.504C338.154 231.373 318.143 222.873 293.312 222.518C268.481 222.162 248.234 230.086 248.089 240.217C247.944 250.347 267.956 258.848 292.787 259.203C317.618 259.558 337.864 251.634 338.009 241.504Z" fill="#F8C244"/>
<path d="M331.353 241.408C331.476 232.778 314.427 225.537 293.273 225.234C272.119 224.931 254.87 231.682 254.746 240.312C254.623 248.942 271.672 256.183 292.826 256.486C313.98 256.789 331.229 250.038 331.353 241.408Z" fill="#E8A825"/>
<path d="M268.886 239.02L275.015 239.113C275.135 238.314 275.446 237.557 275.923 236.905C276.4 236.253 277.028 235.726 277.753 235.37L281.818 236.002C281.116 236.328 280.507 236.822 280.044 237.441C279.58 238.06 279.278 238.784 279.163 239.549C279.163 241.312 281.61 242.546 285.063 242.587C286.396 242.69 287.736 242.502 288.989 242.036C290.242 241.571 291.38 240.839 292.323 239.891C293.672 238.479 295.324 237.391 297.154 236.708C298.984 236.026 300.945 235.766 302.89 235.95C307.94 235.95 311.756 237.547 312.637 239.829L318.766 239.922V241.457L312.866 241.364C312.772 242.029 312.527 242.664 312.15 243.219C311.772 243.775 311.272 244.236 310.688 244.568L306.695 243.894C307.261 243.574 307.743 243.126 308.103 242.585C308.463 242.045 308.691 241.428 308.769 240.783C308.769 238.916 306.011 238.128 303.584 238.087C302.272 238.014 300.961 238.245 299.753 238.761C298.544 239.277 297.471 240.065 296.616 241.063C294.023 243.583 290.84 244.817 285.364 244.817C280.552 244.817 276.031 243.313 275.077 240.752L268.762 240.658L268.886 239.02Z" fill="#F8C244"/>
<path d="M276.747 245.003C251.91 244.672 231.896 236.158 232 226.005C232 224.885 231.16 218.508 231.647 217.502C235.567 208.988 255.146 207.993 277.276 208.293C298.99 208.615 317.231 208.293 321.296 216.693C321.898 217.896 321.991 226.026 321.971 227.281C321.846 237.412 301.583 245.366 276.747 245.003Z" fill="#E8A825"/>
<path d="M321.652 218.841C321.797 208.71 301.786 200.21 276.955 199.854C252.124 199.499 231.877 207.423 231.732 217.554C231.587 227.684 251.599 236.185 276.43 236.54C301.26 236.895 321.507 228.971 321.652 218.841Z" fill="#F8C244"/>
<path d="M314.995 218.745C315.119 210.115 298.07 202.874 276.916 202.571C255.762 202.268 238.513 209.019 238.389 217.649C238.266 226.279 255.314 233.52 276.469 233.823C297.623 234.126 314.872 227.375 314.995 218.745Z" fill="#E8A825"/>
<path d="M252.533 216.372L258.661 216.465C258.78 215.664 259.091 214.904 259.568 214.25C260.044 213.597 260.673 213.068 261.399 212.711L265.464 213.354C264.763 213.678 264.153 214.17 263.688 214.787C263.223 215.404 262.917 216.127 262.799 216.89C262.799 218.653 265.257 219.887 268.71 219.929C270.043 220.031 271.382 219.843 272.636 219.378C273.889 218.912 275.026 218.18 275.969 217.232C277.32 215.822 278.972 214.735 280.802 214.053C282.631 213.37 284.592 213.11 286.536 213.292C291.576 213.292 295.403 214.889 296.284 217.17L302.413 217.263V218.809L296.512 218.715C296.416 219.38 296.171 220.014 295.793 220.569C295.416 221.124 294.917 221.586 294.334 221.92L290.342 221.246C290.907 220.926 291.389 220.477 291.749 219.937C292.11 219.397 292.338 218.779 292.416 218.134C292.416 216.258 289.668 215.469 287.231 215.428C285.916 215.356 284.603 215.588 283.392 216.106C282.182 216.624 281.107 217.414 280.252 218.414C277.67 220.924 274.486 222.158 269.011 222.158C264.189 222.158 259.678 220.665 258.724 218.093L252.408 218L252.533 216.372Z" fill="#F8C244"/>
<path d="M242.525 250.219C242.919 251.485 243.272 252.988 242.525 254.067C242.164 254.536 241.679 254.895 241.125 255.104C240.489 255.414 239.778 255.538 239.073 255.463C238.369 255.388 237.7 255.116 237.143 254.679C236.556 254.026 236.139 253.239 235.93 252.387C234.936 249.265 234.218 246.062 233.783 242.815C233.706 242.52 233.706 242.209 233.783 241.913C233.949 241.599 234.216 241.35 234.54 241.208C236.252 240.285 238.906 239.549 239.86 241.592C241.105 244.194 241.675 247.43 242.525 250.219Z" fill="#F9C6D6"/>
<path d="M237.392 251.692C237.043 251.648 236.687 251.687 236.355 251.806C236.123 251.939 235.919 252.115 235.754 252.325L232 256.535C231.295 257.344 230.538 258.464 231.036 259.418C231.211 259.687 231.445 259.914 231.719 260.08C231.994 260.247 232.302 260.351 232.622 260.382C234.414 260.544 236.215 260.184 237.807 259.345C238.948 258.848 240.058 258.308 241.157 257.707C241.979 257.335 242.692 256.761 243.231 256.037C244.071 254.741 244.33 251.62 242.826 250.645C242.069 250.157 241.406 250.51 240.69 250.842C239.677 251.39 238.545 251.682 237.392 251.692V251.692Z" fill="#8D1EFC"/>
<path d="M222.097 264.52C222.063 264.757 222.088 264.999 222.169 265.225C222.293 265.456 222.48 265.647 222.708 265.775C223.407 266.265 224.231 266.546 225.083 266.583C225.51 266.596 225.933 266.508 226.32 266.328C226.707 266.148 227.047 265.881 227.313 265.546C227.7 264.917 227.938 264.208 228.007 263.472C228.319 261.87 228.472 260.241 228.464 258.609C228.481 258.377 228.411 258.148 228.267 257.966C228.142 257.875 227.995 257.817 227.842 257.8C226.504 257.52 223.87 256.763 223.196 258.464C222.509 260.411 222.137 262.455 222.097 264.52Z" fill="#F9C6D6"/>
<path d="M216.445 264.374C215.307 264.433 214.182 264.653 213.106 265.028C212.565 265.218 212.07 265.517 211.649 265.906C211.228 266.294 210.891 266.765 210.658 267.288C210.443 267.809 210.417 268.389 210.586 268.927C210.958 269.71 211.603 270.33 212.401 270.669C216.191 272.719 220.483 273.657 224.782 273.376C225.888 273.414 226.965 273.015 227.779 272.266C228.38 271.368 228.662 270.294 228.578 269.217L228.723 264.115C227.769 263.97 226.877 264.592 225.965 264.914C224.388 265.453 223.766 264.146 222.46 263.877C220.8 263.42 218.218 264.188 216.445 264.374Z" fill="#8D1EFC"/>
<path d="M237.392 251.692C237.043 251.648 236.687 251.687 236.355 251.806C236.123 251.939 235.919 252.115 235.754 252.325L232 256.535C231.295 257.344 230.538 258.464 231.036 259.418C231.211 259.687 231.445 259.914 231.719 260.08C231.994 260.247 232.302 260.351 232.622 260.382C234.414 260.544 236.215 260.184 237.807 259.345C238.948 258.848 240.058 258.308 241.157 257.707C241.979 257.335 242.692 256.761 243.231 256.037C244.071 254.741 244.33 251.62 242.826 250.645C242.069 250.157 241.406 250.51 240.69 250.842C239.677 251.39 238.545 251.682 237.392 251.692V251.692Z" fill="url(#paint4_linear_156_117)"/>
<path d="M216.445 264.374C215.307 264.433 214.182 264.653 213.106 265.028C212.565 265.218 212.07 265.517 211.649 265.906C211.228 266.294 210.891 266.765 210.658 267.288C210.443 267.809 210.417 268.389 210.586 268.927C210.958 269.71 211.603 270.33 212.401 270.669C216.191 272.719 220.483 273.657 224.782 273.376C225.888 273.414 226.965 273.015 227.779 272.266C228.38 271.368 228.662 270.294 228.578 269.217L228.723 264.115C227.769 263.97 226.877 264.592 225.965 264.914C224.388 265.453 223.766 264.146 222.46 263.877C220.8 263.42 218.218 264.188 216.445 264.374Z" fill="url(#paint5_linear_156_117)"/>
<path d="M230.092 208.106C229.004 208.324 227.998 208.841 227.188 209.6C226.367 210.787 225.999 212.229 226.151 213.665C226.175 223.95 228.087 234.144 231.792 243.738C231.881 244.091 232.038 244.423 232.255 244.715C232.472 245.007 232.745 245.253 233.058 245.439C233.624 245.607 234.229 245.581 234.779 245.366C237.004 244.744 239.195 244.007 241.343 243.157L238.429 223.599C238.293 223.053 238.326 222.478 238.523 221.95C238.739 221.583 239.041 221.273 239.404 221.048C242.712 218.59 246.215 216.405 249.878 214.515C254.441 212.151 257.355 209.403 258.174 204.145C258.454 202.669 258.161 201.141 257.355 199.873C256.943 199.251 256.355 198.766 255.666 198.479C254.977 198.193 254.218 198.118 253.487 198.265C252.944 198.435 252.427 198.679 251.952 198.991C248.426 201.117 233.752 207.018 230.092 208.106Z" fill="#282328"/>
<path d="M232.176 221.753C230.798 223.524 229.71 225.501 228.951 227.613C224.749 237.925 222.022 248.779 220.852 259.853C224.295 260.282 227.779 260.282 231.222 259.853C231.492 252.022 232.682 244.25 234.769 236.697C235.138 235.078 235.768 233.53 236.635 232.113C238.17 229.873 240.68 228.567 243.085 227.353C248.616 224.605 254.407 222.417 260.372 220.82C262.892 220.115 265.433 219.472 267.911 218.622C270.036 217.979 272.026 216.953 273.781 215.594C276.892 212.991 279.277 207.298 275.119 204.539C273.262 203.295 270.919 203.056 268.689 202.839L261.772 202.185C261.082 202.073 260.377 202.101 259.698 202.268C259.119 202.489 258.582 202.808 258.112 203.212C252.927 207.184 247.742 210.72 242.287 214.318C238.937 216.537 234.852 218.601 232.176 221.753Z" fill="#473F47"/>
<path d="M261.606 207.723C259.799 207.014 258.043 206.182 256.349 205.234C249.93 201.636 255.187 199.873 257.386 195.538C258.91 192.427 258.288 188.787 257.5 185.448C256.1 179.589 254.233 173.533 255.581 167.663C255.754 166.712 256.125 165.807 256.67 165.009C257.067 164.522 257.519 164.083 258.018 163.702C259.37 162.52 260.927 161.595 262.612 160.975C265.858 159.938 269.457 160.684 272.495 162.24C284.939 168.555 284.835 188.735 283.664 200.609C283.394 203.347 282.979 206.219 281.31 208.407C278.862 211.622 276.581 210.481 273.47 209.921C269.332 209.216 265.599 209.278 261.606 207.723Z" fill="#8D1EFC"/>
<path d="M283.031 186.423C283.031 188.497 282.627 190.457 282.533 192.489C282.419 194.74 282.658 197.011 282.471 199.251C282.161 202.936 280.74 206.44 278.396 209.299C278.188 209.59 277.91 209.822 277.587 209.973C277.131 210.092 276.648 210.052 276.218 209.859L270.234 208.024C269.449 207.812 268.688 207.521 267.963 207.153C266.705 206.439 265.753 205.287 265.288 203.917C265.15 203.568 265.104 203.19 265.153 202.818C265.319 202.009 266.19 201.543 266.833 201.097C269.415 199.417 271.033 196.627 272.557 193.952C274.015 191.539 275.294 189.023 276.384 186.423C276.782 185.179 277.336 183.991 278.033 182.887C278.738 181.902 280.511 180.471 281.745 181.29C282.979 182.109 283.041 185.147 283.031 186.423Z" fill="url(#paint6_linear_156_117)"/>
<path d="M268.824 169.374C268.303 170.029 267.651 170.568 266.91 170.957C266.169 171.346 265.355 171.577 264.52 171.635C264.255 171.669 263.987 171.606 263.763 171.459C263.527 171.218 263.393 170.894 263.39 170.557C263.318 169.883 263.214 169.011 263.141 168.151C263.069 167.29 262.934 166.232 262.841 165.496C262.639 163.537 261.896 161.673 260.694 160.114C260.448 159.777 260.166 159.468 259.854 159.191C257.78 157.324 266.211 158.061 267.32 155.52C268.606 157.169 268.492 159.502 269.052 161.545C269.421 162.537 269.737 163.547 269.996 164.573C270.147 165.411 270.121 166.271 269.919 167.098C269.717 167.925 269.344 168.701 268.824 169.374V169.374Z" fill="#F9C6D6"/>
<path d="M263.255 168.545L263.141 168.151C263.027 167.186 262.934 166.232 262.84 165.496C262.639 163.537 261.896 161.673 260.694 160.114V159.906C260.694 159.906 267.372 155.52 268.088 160.653C268.803 165.786 263.255 168.545 263.255 168.545Z" fill="url(#paint7_linear_156_117)"/>
<path d="M256.245 157.065C256.107 158.136 256.306 159.224 256.816 160.176C257.08 160.578 257.413 160.929 257.801 161.213C260.455 163.215 264.448 162.81 267.134 160.736C268.415 159.635 269.447 158.274 270.162 156.744C270.878 155.214 271.259 153.549 271.282 151.859C271.473 150.1 270.975 148.334 269.892 146.934C269.239 146.299 268.438 145.839 267.561 145.594C266.684 145.35 265.76 145.329 264.873 145.534C262.445 146.098 260.233 147.355 258.506 149.153C256.795 151.03 256.37 154.649 256.245 157.065Z" fill="#F9C6D6"/>
<path d="M280.293 174.59C280.345 174.964 280.387 175.337 280.428 175.71C281.03 181.258 280.49 186.713 280.283 192.24C280.148 196.046 279.868 201.045 276.622 203.647C267.943 210.606 248.623 196.057 247.773 195.424C246.477 194.46 244.662 194.387 243.106 194.211C241.289 194.095 239.587 193.281 238.357 191.94C237.761 191.26 237.374 190.424 237.239 189.531C237.105 188.637 237.23 187.724 237.6 186.9C238.875 184.39 242.463 184.007 245.046 185.126C247.628 186.246 249.567 188.424 251.807 190.125C253.573 191.39 255.435 192.517 257.376 193.495C259.636 194.698 267.6 196.43 270.162 196.461C272.889 196.461 271.821 180.45 272.091 175.337C272.101 174.015 272.424 172.714 273.034 171.542C273.34 170.969 273.785 170.483 274.329 170.13C274.873 169.776 275.498 169.566 276.145 169.52C276.831 169.572 277.491 169.803 278.059 170.191C278.627 170.578 279.083 171.109 279.381 171.728C279.851 172.621 280.16 173.59 280.293 174.59Z" fill="#F9C6D6"/>
<path d="M266.294 154.275C266.294 154.441 266.242 154.607 266.221 154.773L265.941 157.77L265.35 163.878L275.627 165.319C276.073 162.053 277.016 158.859 277.421 155.582C277.825 152.305 277.659 148.81 276.021 145.948C274.694 143.615 271.52 142.215 269.156 141.136C268.562 140.869 267.944 140.657 267.31 140.504C264.871 139.855 262.29 139.981 259.927 140.867C259.361 141.058 258.834 141.35 258.371 141.728C258.072 142.104 257.802 142.503 257.562 142.92C256.645 144.111 255.866 145.401 255.239 146.767C254.909 147.414 254.708 148.118 254.648 148.841C254.622 148.919 254.622 149.003 254.648 149.08C254.699 149.148 254.767 149.202 254.845 149.235L257.604 150.718C257.663 150.755 257.731 150.776 257.801 150.781C257.906 150.768 258.002 150.716 258.07 150.635L259.999 148.955L259.47 150.127C259.443 150.184 259.429 150.246 259.429 150.309C259.429 150.372 259.443 150.434 259.47 150.49C259.517 150.549 259.577 150.596 259.647 150.625L262.405 151.984C262.459 151.998 262.517 151.998 262.571 151.984C262.664 151.984 262.727 151.911 262.789 151.849L264.126 150.438L263.732 152.181C263.706 152.265 263.706 152.355 263.732 152.44C263.777 152.513 263.847 152.569 263.929 152.595L265.402 153.352C265.454 153.352 265.506 153.404 265.547 153.352C265.592 153.341 265.632 153.315 265.661 153.28L266.646 152.17C266.58 152.88 266.463 153.583 266.294 154.275Z" fill="#473F47"/>
<path d="M281.89 174.3C283.124 177.411 282.004 180.356 281.942 183.416C281.945 183.723 281.91 184.029 281.839 184.328C281.708 184.748 281.477 185.129 281.164 185.438C280.551 186.009 279.827 186.449 279.037 186.731C278.247 187.013 277.407 187.13 276.571 187.076C274.898 186.949 273.252 186.578 271.686 185.977C271.173 185.875 270.717 185.582 270.411 185.158C270.277 184.862 270.22 184.538 270.245 184.214C270.162 179.537 268.959 171.988 273.511 168.877C277.12 166.398 280.739 171.251 281.89 174.3Z" fill="#8D1EFC"/>
<path d="M257.583 174.01C256.093 174.817 254.736 175.849 253.559 177.069C253.323 177.282 253.147 177.554 253.051 177.857C253.005 178.093 253.005 178.336 253.051 178.573C253.286 179.734 253.688 180.855 254.244 181.901C254.361 182.142 254.515 182.362 254.7 182.555C256.453 184.152 256.857 181.248 256.981 180.304C257.279 178.21 257.479 176.111 257.583 174.01Z" fill="url(#paint8_linear_156_117)"/>
<path d="M257.106 155.022C258.234 155.022 259.149 154.108 259.149 152.979C259.149 151.851 258.234 150.937 257.106 150.937C255.978 150.937 255.063 151.851 255.063 152.979C255.063 154.108 255.978 155.022 257.106 155.022Z" stroke="#473F47" stroke-width="0.331842" stroke-miterlimit="10"/>
<path d="M261.119 156.785C262.247 156.785 263.162 155.87 263.162 154.742C263.162 153.614 262.247 152.699 261.119 152.699C259.991 152.699 259.076 153.614 259.076 154.742C259.076 155.87 259.991 156.785 261.119 156.785Z" stroke="#473F47" stroke-width="0.331842" stroke-miterlimit="10"/>
<path d="M235.329 174.01L238.523 167.383C238.523 167.383 239.829 167.446 240.078 168.192L236.552 174.705C236.552 174.705 236.345 175.192 235.329 174.01Z" fill="#473F47"/>
<defs>
<linearGradient id="paint0_linear_156_117" x1="198.691" y1="166.844" x2="184.692" y2="409.566" gradientUnits="userSpaceOnUse">
<stop offset="0.01"/>
<stop offset="0.13" stop-opacity="0.69"/>
<stop offset="0.25" stop-opacity="0.32"/>
<stop offset="1" stop-opacity="0"/>
</linearGradient>
<linearGradient id="paint1_linear_156_117" x1="189.099" y1="145.108" x2="320.094" y2="237.952" gradientUnits="userSpaceOnUse">
<stop offset="0.01"/>
<stop offset="0.08" stop-opacity="0.69"/>
<stop offset="0.21" stop-opacity="0.32"/>
<stop offset="1" stop-opacity="0"/>
</linearGradient>
<linearGradient id="paint2_linear_156_117" x1="196.607" y1="177.183" x2="192.21" y2="261.409" gradientUnits="userSpaceOnUse">
<stop offset="0.01"/>
<stop offset="0.08" stop-opacity="0.69"/>
<stop offset="0.21" stop-opacity="0.32"/>
<stop offset="1" stop-opacity="0"/>
</linearGradient>
<linearGradient id="paint3_linear_156_117" x1="252.201" y1="185.8" x2="228.474" y2="210.325" gradientUnits="userSpaceOnUse">
<stop offset="0.01"/>
<stop offset="0.13" stop-opacity="0.69"/>
<stop offset="0.25" stop-opacity="0.32"/>
<stop offset="1" stop-opacity="0"/>
</linearGradient>
<linearGradient id="paint4_linear_156_117" x1="231.71" y1="252.584" x2="252.263" y2="262.778" gradientUnits="userSpaceOnUse">
<stop offset="0.01"/>
<stop offset="0.13" stop-opacity="0.69"/>
<stop offset="0.25" stop-opacity="0.32"/>
<stop offset="1" stop-opacity="0"/>
</linearGradient>
<linearGradient id="paint5_linear_156_117" x1="214.931" y1="279.618" x2="226.96" y2="252.552" gradientUnits="userSpaceOnUse">
<stop offset="0.01"/>
<stop offset="0.13" stop-opacity="0.69"/>
<stop offset="0.25" stop-opacity="0.32"/>
<stop offset="1" stop-opacity="0"/>
</linearGradient>
<linearGradient id="paint6_linear_156_117" x1="260.59" y1="183.488" x2="302.724" y2="215.283" gradientUnits="userSpaceOnUse">
<stop offset="0.01"/>
<stop offset="0.13" stop-opacity="0.69"/>
<stop offset="0.25" stop-opacity="0.32"/>
<stop offset="1" stop-opacity="0"/>
</linearGradient>
<linearGradient id="paint7_linear_156_117" x1="260.186" y1="152.45" x2="273.2" y2="180.875" gradientUnits="userSpaceOnUse">
<stop offset="0.01"/>
<stop offset="0.13" stop-opacity="0.69"/>
<stop offset="0.25" stop-opacity="0.32"/>
<stop offset="1" stop-opacity="0"/>
</linearGradient>
<linearGradient id="paint8_linear_156_117" x1="264.313" y1="177.224" x2="242.38" y2="180.927" gradientUnits="userSpaceOnUse">
<stop offset="0.01"/>
<stop offset="0.13" stop-opacity="0.69"/>
<stop offset="0.25" stop-opacity="0.32"/>
<stop offset="1" stop-opacity="0"/>
</linearGradient>
</defs>
</svg>
